<mxfile host="Electron" agent="Mozilla/5.0 (Windows NT 10.0; Win64; x64) AppleWebKit/537.36 (KHTML, like Gecko) draw.io/26.2.2 Chrome/134.0.6998.178 Electron/35.1.2 Safari/537.36" version="26.2.2">
  <diagram name="Strona-1" id="zSJYm-qMYMyT4YE68uvX">
    <mxGraphModel dx="1092" dy="1185" grid="1" gridSize="10" guides="1" tooltips="1" connect="1" arrows="1" fold="1" page="1" pageScale="1" pageWidth="827" pageHeight="1169" math="0" shadow="0">
      <root>
        <mxCell id="0" />
        <mxCell id="1" parent="0" />
        <mxCell id="-tnmiT0db7WPYG43LQfO-1" style="edgeStyle=orthogonalEdgeStyle;rounded=0;orthogonalLoop=1;jettySize=auto;html=1;" edge="1" parent="1" source="-tnmiT0db7WPYG43LQfO-3" target="-tnmiT0db7WPYG43LQfO-5">
          <mxGeometry relative="1" as="geometry" />
        </mxCell>
        <mxCell id="-tnmiT0db7WPYG43LQfO-2" style="edgeStyle=orthogonalEdgeStyle;rounded=0;orthogonalLoop=1;jettySize=auto;html=1;entryX=0.5;entryY=0;entryDx=0;entryDy=0;" edge="1" parent="1" source="-tnmiT0db7WPYG43LQfO-3" target="-tnmiT0db7WPYG43LQfO-7">
          <mxGeometry relative="1" as="geometry" />
        </mxCell>
        <mxCell id="-tnmiT0db7WPYG43LQfO-3" value="TAKE_PHOTO" style="rounded=1;whiteSpace=wrap;html=1;fillColor=#fff2cc;strokeColor=#d6b656;" vertex="1" parent="1">
          <mxGeometry x="360" y="40" width="120" height="40" as="geometry" />
        </mxCell>
        <mxCell id="-tnmiT0db7WPYG43LQfO-4" value="" style="edgeStyle=orthogonalEdgeStyle;rounded=0;orthogonalLoop=1;jettySize=auto;html=1;" edge="1" parent="1" source="-tnmiT0db7WPYG43LQfO-5" target="-tnmiT0db7WPYG43LQfO-11">
          <mxGeometry relative="1" as="geometry" />
        </mxCell>
        <mxCell id="-tnmiT0db7WPYG43LQfO-5" value="BGR" style="rounded=1;whiteSpace=wrap;html=1;fillColor=#dae8fc;strokeColor=#6c8ebf;" vertex="1" parent="1">
          <mxGeometry x="200" y="120" width="120" height="40" as="geometry" />
        </mxCell>
        <mxCell id="-tnmiT0db7WPYG43LQfO-6" value="" style="edgeStyle=orthogonalEdgeStyle;rounded=0;orthogonalLoop=1;jettySize=auto;html=1;" edge="1" parent="1" source="-tnmiT0db7WPYG43LQfO-7" target="-tnmiT0db7WPYG43LQfO-45">
          <mxGeometry relative="1" as="geometry" />
        </mxCell>
        <mxCell id="-tnmiT0db7WPYG43LQfO-7" value="DEPTH" style="rounded=1;whiteSpace=wrap;html=1;fillColor=#dae8fc;strokeColor=#6c8ebf;" vertex="1" parent="1">
          <mxGeometry x="520" y="120" width="120" height="40" as="geometry" />
        </mxCell>
        <mxCell id="-tnmiT0db7WPYG43LQfO-8" style="edgeStyle=orthogonalEdgeStyle;rounded=0;orthogonalLoop=1;jettySize=auto;html=1;entryX=0.75;entryY=0;entryDx=0;entryDy=0;" edge="1" parent="1" source="-tnmiT0db7WPYG43LQfO-9" target="-tnmiT0db7WPYG43LQfO-13">
          <mxGeometry relative="1" as="geometry" />
        </mxCell>
        <mxCell id="-tnmiT0db7WPYG43LQfO-9" value="create box depth mask" style="rounded=1;whiteSpace=wrap;html=1;" vertex="1" parent="1">
          <mxGeometry x="520" y="280" width="120" height="40" as="geometry" />
        </mxCell>
        <mxCell id="-tnmiT0db7WPYG43LQfO-10" style="edgeStyle=orthogonalEdgeStyle;rounded=0;orthogonalLoop=1;jettySize=auto;html=1;entryX=0.25;entryY=0;entryDx=0;entryDy=0;" edge="1" parent="1" source="-tnmiT0db7WPYG43LQfO-11" target="-tnmiT0db7WPYG43LQfO-13">
          <mxGeometry relative="1" as="geometry" />
        </mxCell>
        <mxCell id="-tnmiT0db7WPYG43LQfO-11" value="create box color mask" style="rounded=1;whiteSpace=wrap;html=1;" vertex="1" parent="1">
          <mxGeometry x="200" y="200" width="120" height="40" as="geometry" />
        </mxCell>
        <mxCell id="-tnmiT0db7WPYG43LQfO-12" style="edgeStyle=orthogonalEdgeStyle;rounded=0;orthogonalLoop=1;jettySize=auto;html=1;" edge="1" parent="1" source="-tnmiT0db7WPYG43LQfO-13">
          <mxGeometry relative="1" as="geometry">
            <mxPoint x="420" y="440" as="targetPoint" />
          </mxGeometry>
        </mxCell>
        <mxCell id="-tnmiT0db7WPYG43LQfO-13" value="combine masks" style="rounded=1;whiteSpace=wrap;html=1;" vertex="1" parent="1">
          <mxGeometry x="360" y="360" width="120" height="40" as="geometry" />
        </mxCell>
        <mxCell id="-tnmiT0db7WPYG43LQfO-14" value="" style="edgeStyle=orthogonalEdgeStyle;rounded=0;orthogonalLoop=1;jettySize=auto;html=1;entryX=0.5;entryY=0;entryDx=0;entryDy=0;" edge="1" parent="1" source="-tnmiT0db7WPYG43LQfO-15" target="-tnmiT0db7WPYG43LQfO-43">
          <mxGeometry relative="1" as="geometry">
            <Array as="points">
              <mxPoint x="260" y="890" />
            </Array>
          </mxGeometry>
        </mxCell>
        <mxCell id="-tnmiT0db7WPYG43LQfO-15" value="remove contours outside the box" style="rounded=1;whiteSpace=wrap;html=1;" vertex="1" parent="1">
          <mxGeometry x="200" y="800" width="120" height="40" as="geometry" />
        </mxCell>
        <mxCell id="-tnmiT0db7WPYG43LQfO-16" style="edgeStyle=orthogonalEdgeStyle;rounded=0;orthogonalLoop=1;jettySize=auto;html=1;entryX=0;entryY=0.5;entryDx=0;entryDy=0;" edge="1" parent="1" source="-tnmiT0db7WPYG43LQfO-17" target="-tnmiT0db7WPYG43LQfO-24">
          <mxGeometry relative="1" as="geometry">
            <Array as="points">
              <mxPoint x="100" y="660" />
            </Array>
          </mxGeometry>
        </mxCell>
        <mxCell id="-tnmiT0db7WPYG43LQfO-17" value="camera params" style="rounded=1;whiteSpace=wrap;html=1;fillColor=#dae8fc;strokeColor=#6c8ebf;" vertex="1" parent="1">
          <mxGeometry x="40" y="40" width="120" height="40" as="geometry" />
        </mxCell>
        <mxCell id="-tnmiT0db7WPYG43LQfO-18" style="edgeStyle=orthogonalEdgeStyle;rounded=0;orthogonalLoop=1;jettySize=auto;html=1;" edge="1" parent="1" source="-tnmiT0db7WPYG43LQfO-20" target="-tnmiT0db7WPYG43LQfO-22">
          <mxGeometry relative="1" as="geometry" />
        </mxCell>
        <mxCell id="-tnmiT0db7WPYG43LQfO-19" style="edgeStyle=orthogonalEdgeStyle;rounded=0;orthogonalLoop=1;jettySize=auto;html=1;" edge="1" parent="1" source="-tnmiT0db7WPYG43LQfO-20" target="-tnmiT0db7WPYG43LQfO-40">
          <mxGeometry relative="1" as="geometry" />
        </mxCell>
        <mxCell id="-tnmiT0db7WPYG43LQfO-20" value="mask not NONE" style="rhombus;whiteSpace=wrap;html=1;fillColor=#e1d5e7;strokeColor=#9673a6;" vertex="1" parent="1">
          <mxGeometry x="380" y="440" width="80" height="80" as="geometry" />
        </mxCell>
        <mxCell id="-tnmiT0db7WPYG43LQfO-21" style="edgeStyle=orthogonalEdgeStyle;rounded=0;orthogonalLoop=1;jettySize=auto;html=1;entryX=0.5;entryY=0;entryDx=0;entryDy=0;" edge="1" parent="1" source="-tnmiT0db7WPYG43LQfO-22" target="-tnmiT0db7WPYG43LQfO-24">
          <mxGeometry relative="1" as="geometry" />
        </mxCell>
        <mxCell id="-tnmiT0db7WPYG43LQfO-22" value="preprocess mask" style="rounded=1;whiteSpace=wrap;html=1;" vertex="1" parent="1">
          <mxGeometry x="200" y="560" width="120" height="40" as="geometry" />
        </mxCell>
        <mxCell id="-tnmiT0db7WPYG43LQfO-23" style="edgeStyle=orthogonalEdgeStyle;rounded=0;orthogonalLoop=1;jettySize=auto;html=1;entryX=0.5;entryY=0;entryDx=0;entryDy=0;" edge="1" parent="1" source="-tnmiT0db7WPYG43LQfO-24" target="-tnmiT0db7WPYG43LQfO-26">
          <mxGeometry relative="1" as="geometry" />
        </mxCell>
        <mxCell id="-tnmiT0db7WPYG43LQfO-24" value="undistort" style="rounded=1;whiteSpace=wrap;html=1;" vertex="1" parent="1">
          <mxGeometry x="200" y="640" width="120" height="40" as="geometry" />
        </mxCell>
        <mxCell id="-tnmiT0db7WPYG43LQfO-25" value="" style="edgeStyle=orthogonalEdgeStyle;rounded=0;orthogonalLoop=1;jettySize=auto;html=1;" edge="1" parent="1" source="-tnmiT0db7WPYG43LQfO-26" target="-tnmiT0db7WPYG43LQfO-15">
          <mxGeometry relative="1" as="geometry" />
        </mxCell>
        <mxCell id="-tnmiT0db7WPYG43LQfO-26" value="find contours" style="rounded=1;whiteSpace=wrap;html=1;" vertex="1" parent="1">
          <mxGeometry x="200" y="720" width="120" height="40" as="geometry" />
        </mxCell>
        <mxCell id="-tnmiT0db7WPYG43LQfO-27" value="" style="edgeStyle=orthogonalEdgeStyle;rounded=0;orthogonalLoop=1;jettySize=auto;html=1;" edge="1" parent="1" source="-tnmiT0db7WPYG43LQfO-28" target="-tnmiT0db7WPYG43LQfO-30">
          <mxGeometry relative="1" as="geometry" />
        </mxCell>
        <mxCell id="-tnmiT0db7WPYG43LQfO-28" value="find inner contours" style="rounded=1;whiteSpace=wrap;html=1;" vertex="1" parent="1">
          <mxGeometry x="200" y="970" width="120" height="40" as="geometry" />
        </mxCell>
        <mxCell id="-tnmiT0db7WPYG43LQfO-29" value="" style="edgeStyle=orthogonalEdgeStyle;rounded=0;orthogonalLoop=1;jettySize=auto;html=1;" edge="1" parent="1" source="-tnmiT0db7WPYG43LQfO-30" target="-tnmiT0db7WPYG43LQfO-34">
          <mxGeometry relative="1" as="geometry" />
        </mxCell>
        <mxCell id="-tnmiT0db7WPYG43LQfO-30" value="create minimal area rectangle" style="rounded=1;whiteSpace=wrap;html=1;" vertex="1" parent="1">
          <mxGeometry x="200" y="1050" width="120" height="40" as="geometry" />
        </mxCell>
        <mxCell id="-tnmiT0db7WPYG43LQfO-31" value="" style="edgeStyle=orthogonalEdgeStyle;rounded=0;orthogonalLoop=1;jettySize=auto;html=1;" edge="1" parent="1" source="-tnmiT0db7WPYG43LQfO-32" target="-tnmiT0db7WPYG43LQfO-36">
          <mxGeometry relative="1" as="geometry" />
        </mxCell>
        <mxCell id="-tnmiT0db7WPYG43LQfO-32" value="prepare image output" style="rounded=1;whiteSpace=wrap;html=1;" vertex="1" parent="1">
          <mxGeometry x="50" y="1290" width="120" height="40" as="geometry" />
        </mxCell>
        <mxCell id="-tnmiT0db7WPYG43LQfO-33" value="" style="edgeStyle=orthogonalEdgeStyle;rounded=0;orthogonalLoop=1;jettySize=auto;html=1;" edge="1" parent="1" source="-tnmiT0db7WPYG43LQfO-34" target="-tnmiT0db7WPYG43LQfO-38">
          <mxGeometry relative="1" as="geometry" />
        </mxCell>
        <mxCell id="-tnmiT0db7WPYG43LQfO-34" value="validate rectangle" style="rounded=1;whiteSpace=wrap;html=1;" vertex="1" parent="1">
          <mxGeometry x="200" y="1130" width="120" height="40" as="geometry" />
        </mxCell>
        <mxCell id="-tnmiT0db7WPYG43LQfO-35" value="" style="edgeStyle=orthogonalEdgeStyle;rounded=0;orthogonalLoop=1;jettySize=auto;html=1;" edge="1" parent="1" source="-tnmiT0db7WPYG43LQfO-36" target="-tnmiT0db7WPYG43LQfO-39">
          <mxGeometry relative="1" as="geometry" />
        </mxCell>
        <mxCell id="-tnmiT0db7WPYG43LQfO-36" value="prepare box output" style="rounded=1;whiteSpace=wrap;html=1;" vertex="1" parent="1">
          <mxGeometry x="50" y="1360" width="120" height="40" as="geometry" />
        </mxCell>
        <mxCell id="-tnmiT0db7WPYG43LQfO-37" style="edgeStyle=orthogonalEdgeStyle;rounded=0;orthogonalLoop=1;jettySize=auto;html=1;entryX=0.5;entryY=0;entryDx=0;entryDy=0;" edge="1" parent="1" source="-tnmiT0db7WPYG43LQfO-38" target="-tnmiT0db7WPYG43LQfO-40">
          <mxGeometry relative="1" as="geometry" />
        </mxCell>
        <mxCell id="-tnmiT0db7WPYG43LQfO-38" value="rect not valid" style="rhombus;whiteSpace=wrap;html=1;fillColor=#e1d5e7;strokeColor=#9673a6;" vertex="1" parent="1">
          <mxGeometry x="220" y="1210" width="80" height="80" as="geometry" />
        </mxCell>
        <mxCell id="-tnmiT0db7WPYG43LQfO-39" value="BOX OUTPUT" style="ellipse;whiteSpace=wrap;html=1;fillColor=#d5e8d4;strokeColor=#82b366;" vertex="1" parent="1">
          <mxGeometry x="50" y="1440" width="120" height="40" as="geometry" />
        </mxCell>
        <mxCell id="-tnmiT0db7WPYG43LQfO-40" value="NONE" style="ellipse;whiteSpace=wrap;html=1;fillColor=#f8cecc;strokeColor=#b85450;" vertex="1" parent="1">
          <mxGeometry x="480" y="1440" width="120" height="40" as="geometry" />
        </mxCell>
        <mxCell id="-tnmiT0db7WPYG43LQfO-41" style="edgeStyle=orthogonalEdgeStyle;rounded=0;orthogonalLoop=1;jettySize=auto;html=1;entryX=0.417;entryY=0.025;entryDx=0;entryDy=0;entryPerimeter=0;" edge="1" parent="1" source="-tnmiT0db7WPYG43LQfO-38" target="-tnmiT0db7WPYG43LQfO-32">
          <mxGeometry relative="1" as="geometry" />
        </mxCell>
        <mxCell id="-tnmiT0db7WPYG43LQfO-42" style="edgeStyle=orthogonalEdgeStyle;rounded=0;orthogonalLoop=1;jettySize=auto;html=1;" edge="1" parent="1" source="-tnmiT0db7WPYG43LQfO-43" target="-tnmiT0db7WPYG43LQfO-28">
          <mxGeometry relative="1" as="geometry" />
        </mxCell>
        <mxCell id="-tnmiT0db7WPYG43LQfO-43" value="remove edge counturs" style="rounded=1;whiteSpace=wrap;html=1;" vertex="1" parent="1">
          <mxGeometry x="200" y="880" width="120" height="40" as="geometry" />
        </mxCell>
        <mxCell id="-tnmiT0db7WPYG43LQfO-44" value="" style="edgeStyle=orthogonalEdgeStyle;rounded=0;orthogonalLoop=1;jettySize=auto;html=1;" edge="1" parent="1" source="-tnmiT0db7WPYG43LQfO-45" target="-tnmiT0db7WPYG43LQfO-9">
          <mxGeometry relative="1" as="geometry" />
        </mxCell>
        <mxCell id="-tnmiT0db7WPYG43LQfO-45" value="fix depth" style="rounded=1;whiteSpace=wrap;html=1;" vertex="1" parent="1">
          <mxGeometry x="520" y="200" width="120" height="40" as="geometry" />
        </mxCell>
      </root>
    </mxGraphModel>
  </diagram>
</mxfile>
